<?xml version="1.0" standalone="no"?>
<!DOCTYPE svg PUBLIC "-//W3C//DTD SVG 20010904//EN"
 "http://www.w3.org/TR/2001/REC-SVG-20010904/DTD/svg10.dtd">
<svg version="1.0" xmlns="http://www.w3.org/2000/svg"
 width="460.000000pt" height="460.000000pt" viewBox="0 0 460.000000 460.000000"
 preserveAspectRatio="xMidYMid meet">
<metadata>
Created by potrace 1.14, written by Peter Selinger 2001-2017
</metadata>
<g transform="translate(0.000000,460.000000) scale(0.100000,-0.100000)"
fill="#000000" stroke="none">
<path d="M2150 4594 c-189 -14 -409 -60 -595 -124 -125 -43 -437 -191 -515
-243 -178 -120 -408 -336 -556 -522 -111 -139 -115 -146 -193 -297 -203 -392
-284 -710 -284 -1108 0 -404 81 -714 294 -1128 89 -173 223 -346 401 -518 160
-154 368 -314 428 -329 24 -5 29 3 124 197 54 112 141 300 192 418 106 243
190 414 212 432 13 11 14 9 7 -17 -20 -76 -32 -145 -25 -145 4 0 10 9 13 21 6
21 27 18 27 -4 0 -7 -4 -6 -10 3 -12 18 -12 2 0 -25 6 -13 9 -15 9 -5 1 8 12
-3 24 -25 24 -42 45 -47 92 -26 11 5 27 12 37 14 9 3 19 20 23 37 10 44 82
114 109 105 12 -4 28 -8 36 -9 9 -1 21 -5 27 -9 6 -4 15 -2 18 3 5 7 11 5 19
-6 11 -14 16 -15 36 -4 19 10 24 10 32 -3 5 -11 17 -14 36 -10 15 3 34 5 42 6
8 0 21 4 28 10 15 12 62 16 62 6 0 -8 51 -31 57 -26 2 3 -8 14 -23 26 l-27 21
34 0 c19 0 53 -9 77 -20 24 -11 47 -19 52 -17 5 1 15 -7 23 -17 9 -13 18 -16
28 -10 23 14 86 6 165 -21 78 -27 99 -25 91 6 -3 10 0 20 7 22 8 3 7 9 -3 20
-18 22 -9 22 81 -8 75 -24 201 -94 225 -125 7 -8 13 -12 13 -8 1 19 -118 115
-196 158 l-39 22 34 -6 c42 -8 37 -1 -15 19 l-39 15 35 -5 c30 -5 118 -34 195
-65 108 -43 306 -150 375 -202 46 -35 99 -74 119 -87 20 -13 37 -28 39 -32 2
-5 36 -32 75 -61 40 -29 77 -58 84 -64 6 -6 35 -26 65 -45 29 -18 59 -39 66
-46 37 -36 49 -34 85 9 19 23 32 48 30 58 -3 9 -23 25 -46 35 -25 10 -72 49
-118 97 -62 64 -80 91 -96 139 -11 34 -16 62 -11 65 5 4 -1 18 -15 33 -45 49
-43 81 3 41 13 -11 25 -20 27 -20 9 0 -12 24 -56 63 -25 23 -82 77 -126 120
-43 42 -93 81 -110 86 -30 9 -30 9 10 10 22 1 57 -4 77 -9 25 -7 44 -8 56 -1
15 8 25 4 48 -20 44 -47 62 -54 85 -33 16 15 24 16 39 7 15 -10 19 -9 24 3 9
23 7 31 -4 14 -5 -8 -13 -11 -17 -6 -4 4 3 18 17 30 l26 22 -21 22 c-19 20
-21 20 -31 4 -14 -23 -7 -42 14 -35 9 3 -1 -11 -23 -31 -40 -35 -63 -47 -49
-24 4 6 3 8 -3 5 -12 -7 -25 17 -16 27 12 12 34 6 27 -6 -4 -7 -3 -9 1 -5 14
12 15 38 2 30 -7 -4 3 8 22 26 28 26 32 34 20 42 -8 5 -9 9 -4 9 6 0 16 -5 21
-10 6 -6 19 -7 30 -3 17 6 17 8 -6 15 -18 6 -15 7 14 3 28 -3 61 -21 119 -66
44 -33 85 -63 91 -65 21 -7 35 12 49 66 14 53 14 54 -15 97 -16 24 -34 43 -40
43 -6 0 -9 2 -7 5 8 7 112 -35 131 -53 12 -12 23 -49 31 -109 12 -77 20 -99
49 -140 19 -26 43 -65 53 -86 13 -28 21 -35 30 -27 19 16 111 224 160 363 60
169 112 418 88 417 -13 -1 -43 -27 -43 -37 0 -5 -15 -17 -34 -26 -19 -9 -47
-26 -61 -39 -15 -13 -29 -22 -31 -20 -2 1 -27 -14 -54 -33 -27 -19 -54 -35
-59 -35 -4 0 -20 -9 -35 -21 -14 -11 -26 -17 -26 -13 0 4 -8 0 -17 -8 -25 -22
-132 -78 -148 -78 -7 0 -15 -6 -18 -14 -4 -9 -19 -14 -42 -13 -20 1 -40 -4
-44 -11 -4 -7 -20 -12 -37 -13 -58 -2 -86 -11 -80 -24 3 -10 -27 -25 -107 -51
-62 -21 -116 -37 -121 -36 -4 2 -15 -3 -22 -9 -11 -9 -18 -9 -26 -1 -11 11
-41 5 -34 -7 3 -4 -44 -5 -104 -4 -87 3 -119 0 -166 -16 -113 -38 -210 -61
-343 -81 -74 -11 -153 -25 -175 -32 -23 -6 -88 -11 -146 -9 -228 4 -266 4
-305 -3 -27 -5 -55 -2 -85 8 -46 15 -44 16 45 2 47 -8 34 9 -21 26 -42 13 -73
17 -106 13 -53 -7 -131 2 -123 15 3 4 -2 14 -11 21 -8 7 -14 8 -12 3 2 -5 -1
-9 -7 -9 -5 0 -9 4 -7 9 2 5 -7 6 -18 3 -16 -4 -20 -2 -16 9 5 12 1 14 -16 8
-21 -6 -22 -5 -8 11 14 17 13 17 -9 10 -16 -5 -26 -3 -32 6 -6 10 -9 11 -9 2
0 -7 26 -30 58 -50 31 -21 59 -39 61 -40 16 -11 -19 -12 -101 -1 -78 10 -107
9 -154 -2 -33 -7 -65 -16 -73 -20 -8 -4 -29 1 -47 12 -18 11 -38 17 -43 14 -5
-4 -13 -1 -18 6 -4 7 -19 22 -33 33 -14 10 6 -13 44 -53 39 -39 67 -74 64 -78
-4 -3 -13 -2 -20 2 -7 5 -19 9 -27 11 -65 9 -136 35 -251 89 -74 34 -164 70
-199 79 -115 29 -169 68 -189 135 -6 19 -20 87 -31 151 -12 64 -24 125 -28
135 -6 16 -4 17 9 7 8 -7 18 -9 22 -5 4 4 6 0 4 -8 -7 -33 144 -76 297 -85
383 -22 569 -26 734 -15 181 12 225 19 130 21 -52 1 -53 1 -21 11 17 6 32 15
32 19 0 5 16 9 35 9 19 0 35 -4 35 -9 0 -5 8 -12 18 -14 9 -2 5 -3 -10 -2 -16
1 -28 -4 -28 -10 0 -13 88 -9 125 6 18 7 17 8 -6 8 -27 1 -54 23 -42 34 3 4
26 7 50 7 30 0 45 5 50 16 4 11 13 14 29 10 32 -8 30 2 -7 40 l-31 32 53 -26
c36 -18 65 -25 93 -23 55 4 67 18 22 26 -64 12 -28 27 48 20 64 -6 73 -5 90
14 11 12 26 21 34 21 9 0 5 -8 -12 -21 -14 -11 -26 -25 -26 -30 0 -13 73 19
82 35 4 8 28 17 52 20 25 4 59 14 76 23 17 8 34 12 37 9 4 -3 2 -6 -4 -6 -6 0
-18 -11 -26 -24 l-16 -24 52 14 c29 8 63 14 77 15 18 1 20 3 7 6 -10 3 -30 11
-45 20 -27 15 -27 15 16 9 48 -7 78 3 46 15 -16 6 -14 9 18 23 53 23 82 20 38
-4 -28 -15 -31 -19 -14 -20 29 0 84 20 84 31 0 5 -7 9 -16 9 -8 0 -12 5 -9 10
3 6 16 8 29 4 13 -3 39 3 62 15 21 11 62 23 89 27 50 8 50 8 15 14 -19 3 -40
2 -47 -3 -7 -5 -20 -7 -30 -4 -14 4 -13 5 4 6 16 1 29 13 43 41 22 43 52 61
98 59 21 -1 18 -3 -12 -9 -25 -5 -49 -18 -64 -36 -23 -26 -23 -28 -6 -34 11
-4 44 5 81 22 70 31 73 32 73 18 0 -6 -24 -22 -52 -35 -65 -30 -46 -33 23 -4
27 12 49 27 49 35 0 15 35 28 50 19 6 -4 0 -15 -16 -28 -15 -11 -40 -33 -58
-49 -31 -28 -53 -38 -40 -16 5 7 2 9 -9 5 -8 -3 -32 -9 -53 -13 -20 -4 -60
-15 -88 -25 -28 -11 -62 -19 -76 -19 -20 -1 -22 -3 -10 -10 15 -8 46 -2 162
36 69 23 79 12 22 -21 -30 -18 -61 -28 -80 -27 -18 2 -37 -4 -44 -13 -10 -12
-10 -15 2 -15 8 0 18 3 24 8 5 4 1 -1 -9 -10 -78 -73 178 81 268 161 35 31 37
35 21 46 -13 10 -14 14 -4 18 9 4 9 6 -2 6 -9 1 -26 -6 -38 -15 -12 -8 -31
-13 -41 -9 -10 3 -24 -1 -31 -10 -7 -8 -17 -15 -23 -15 -5 0 5 15 24 34 19 18
36 34 39 34 29 0 40 4 35 12 -5 8 -11 7 -21 -1 -18 -15 -18 -9 1 28 19 38 41
57 58 50 20 -7 46 11 30 21 -21 13 -25 56 -8 87 l15 30 -6 -42 c-5 -30 -3 -43
5 -43 13 0 15 5 31 68 14 53 30 55 23 2 -4 -26 -2 -40 6 -40 6 0 11 9 11 19 0
11 5 23 10 26 6 3 10 18 10 32 0 24 -3 25 -35 20 -43 -7 -46 7 -5 22 27 9 30
15 30 50 0 22 7 46 15 55 16 16 21 41 6 31 -5 -3 -12 -1 -16 5 -3 5 2 10 12
10 15 0 16 2 3 10 -9 6 -10 10 -3 10 10 0 63 83 63 98 0 3 -14 -7 -31 -24 -24
-22 -29 -24 -21 -8 6 11 18 26 26 33 13 11 14 17 2 44 -30 73 -30 150 0 110
10 -14 10 -7 -2 30 -14 40 -14 53 -4 72 11 21 8 29 -39 85 -50 60 -60 80 -41
80 6 0 10 7 10 16 0 8 -4 12 -10 9 -5 -3 -10 1 -10 10 0 10 5 13 12 9 8 -5 9
-2 5 10 -4 10 -7 23 -7 29 0 8 -3 7 -9 -2 -6 -10 -10 -10 -16 -1 -4 6 -2 17 4
23 18 18 12 46 -14 63 -14 9 -24 19 -21 21 2 3 -2 27 -10 55 -9 27 -13 52 -10
55 12 12 34 -20 45 -62 12 -46 24 -61 42 -50 6 5 4 11 -7 19 -13 10 -16 22
-11 50 6 38 5 39 -43 50 -32 7 -65 70 -45 86 10 8 21 0 44 -34 17 -24 40 -48
51 -51 11 -3 20 -15 20 -25 0 -10 7 -20 15 -24 20 -7 19 -4 -6 41 -12 21 -31
55 -42 76 -20 38 -21 39 -71 35 -49 -3 -66 -11 -66 -33 0 -5 4 -4 9 4 7 11 10
11 17 0 4 -7 3 -14 -4 -17 -8 -2 -5 -12 7 -30 11 -15 22 -45 26 -67 6 -36 5
-39 -9 -25 -9 9 -17 29 -19 46 -2 17 -11 41 -20 54 -19 28 -22 51 -7 66 12 12
3 44 -11 44 -6 0 -21 8 -36 17 -19 13 -22 18 -11 22 12 5 10 11 -9 31 -20 21
-23 22 -17 5 7 -18 6 -19 -10 -6 -10 9 -15 23 -12 34 2 10 -4 33 -15 50 l-19
32 28 5 c25 5 22 8 -39 37 -67 33 -75 44 -85 113 -1 8 -3 20 -4 25 -1 6 -6 -1
-11 -14 -6 -16 -6 -28 2 -38 7 -7 10 -16 7 -19 -11 -10 -39 68 -35 95 5 27 2
30 -30 36 -46 8 -75 28 -109 72 -26 35 -26 35 -3 23 24 -13 24 -13 5 8 -10 12
-23 19 -27 16 -5 -3 -9 9 -9 25 0 17 -4 31 -10 31 -5 0 -10 7 -10 16 0 10 6
14 15 10 8 -3 15 -1 15 4 0 6 -9 10 -20 10 -21 0 -27 14 -11 24 14 9 41 -5 41
-20 0 -17 24 -29 40 -19 7 4 3 16 -10 34 -16 23 -26 28 -51 25 -17 -2 -36 -6
-42 -10 -7 -3 -1 4 12 15 19 17 21 24 11 36 -10 12 -10 15 1 15 8 0 1 7 -16
16 -16 8 -38 13 -47 11 -10 -3 -16 -2 -13 3 5 8 -95 27 -147 27 -19 1 -25 -3
-21 -13 3 -8 10 -14 16 -14 6 0 8 -3 5 -6 -4 -3 -16 0 -28 6 -15 8 -19 17 -15
31 5 15 2 19 -17 19 -13 0 -41 3 -63 6 -38 6 -39 5 -19 -9 11 -9 33 -19 48
-23 15 -3 25 -9 22 -11 -8 -8 -73 17 -97 37 -12 11 -27 20 -33 20 -6 0 -4 -5
4 -10 8 -5 10 -10 5 -10 -6 0 -16 5 -21 10 -12 12 -248 21 -344 14z m615 -64
c3 -5 -1 -10 -9 -10 -8 0 -18 5 -21 10 -3 6 1 10 9 10 8 0 18 -4 21 -10z m47
-40 c34 0 34 -4 7 -33 -17 -17 -21 -18 -16 -4 4 11 1 17 -8 17 -8 0 -20 10
-26 23 -9 18 -9 20 2 10 7 -7 26 -13 41 -13z m-76 2 c19 -14 66 -82 56 -82
-17 0 -69 48 -75 70 -5 21 1 25 19 12z m174 -125 c0 -11 -5 -17 -12 -14 -7 2
-12 10 -10 16 1 7 -2 10 -7 6 -9 -5 -71 20 -71 29 0 3 3 11 6 19 5 13 13 11
50 -11 26 -16 44 -34 44 -45z m-1361 -987 c12 -30 21 -56 21 -56 0 -1 -17 4
-37 12 -21 7 -53 13 -70 14 -28 0 -33 4 -33 25 0 25 35 195 46 225 3 8 16 -25
29 -75 12 -49 32 -115 44 -145z m1936 120 c3 -5 1 -10 -4 -10 -6 0 -11 5 -11
10 0 6 2 10 4 10 3 0 8 -4 11 -10z m-1154 -87 c16 -23 29 -44 29 -46 0 -3 -16
-7 -35 -9 l-35 -4 1 66 c0 36 3 58 6 50 3 -8 19 -34 34 -57z m-834 -89 c-3 -3
-12 -4 -19 -1 -8 3 -5 6 6 6 11 1 17 -2 13 -5z m90 -44 c0 -3 12 -27 29 -55
35 -59 126 -153 174 -178 32 -17 30 -14 -15 27 -27 25 -48 45 -45 46 3 0 27
-11 54 -25 29 -15 66 -25 91 -25 22 0 45 -4 51 -9 14 -15 155 -83 160 -78 2 2
-14 12 -36 22 -58 26 -73 47 -21 29 22 -7 58 -17 80 -20 24 -4 38 -11 34 -17
-3 -5 0 -7 8 -5 8 3 13 11 11 17 -3 17 28 12 88 -13 29 -13 59 -22 65 -21 5 2
24 6 40 10 28 6 27 4 -15 -27 -40 -29 -43 -33 -22 -36 12 -2 22 -5 22 -8 0 -3
-12 -28 -26 -57 l-27 -52 75 71 c73 69 102 84 164 84 21 0 22 -3 13 -32 -10
-37 -12 -138 -3 -162 3 -9 17 -16 31 -16 13 0 22 4 18 9 -8 14 34 24 48 12 7
-5 33 -13 57 -17 54 -8 83 -22 75 -35 -4 -5 -1 -9 4 -9 6 0 11 -6 11 -14 0 -7
7 -19 15 -26 12 -10 25 -9 70 8 43 17 53 18 48 6 -3 -8 -11 -13 -17 -11 -6 3
-18 -2 -27 -9 -8 -8 -42 -20 -75 -28 -45 -11 -51 -15 -24 -14 20 1 41 -2 48
-6 7 -4 18 -4 25 1 7 5 34 9 60 8 37 0 51 4 58 17 6 11 21 18 40 18 24 0 30 4
25 15 -4 11 1 15 19 15 19 0 25 5 25 20 0 14 6 20 18 18 10 -2 17 3 17 12 0
23 17 37 65 53 60 20 60 33 3 42 -26 4 -41 10 -33 13 16 5 30 22 30 36 0 4 -7
5 -15 2 -8 -3 -22 -9 -30 -12 -8 -3 -15 -1 -15 5 0 6 8 11 18 11 15 1 15 2 -2
11 -14 9 -20 8 -27 -2 -6 -10 -9 -7 -10 11 0 14 -3 19 -6 13 -2 -7 -9 -13 -14
-13 -4 0 -6 7 -3 15 4 8 2 15 -4 15 -6 0 -8 10 -5 21 5 19 3 21 -28 14 -19 -3
-42 -9 -51 -11 -12 -4 -18 0 -18 11 0 10 5 13 12 9 6 -4 8 -3 5 3 -4 6 9 37
28 69 19 32 35 53 35 48 0 -18 120 -141 150 -154 16 -7 30 -15 30 -19 0 -3 20
-17 44 -30 25 -14 42 -30 39 -37 -3 -7 8 -15 27 -19 24 -5 36 -16 46 -42 8
-19 13 -42 10 -51 -3 -9 -8 -53 -11 -97 -4 -44 -13 -93 -21 -109 -8 -16 -14
-34 -14 -40 0 -6 -14 -25 -30 -43 -35 -37 -35 -37 -15 -57 9 -9 11 -17 5 -21
-5 -3 -10 -1 -10 4 0 17 -17 13 -24 -5 -3 -8 -2 -12 4 -9 20 12 9 -9 -17 -34
-167 -158 -576 -273 -913 -257 -372 17 -385 18 -370 6 13 -9 12 -11 -5 -9 -34
2 -79 -1 -74 -5 3 -3 40 -8 84 -11 44 -3 84 -10 89 -15 5 -5 15 -6 22 -3 8 3
14 -1 14 -10 0 -21 -47 -49 -70 -42 -12 4 -20 2 -20 -4 0 -6 7 -11 15 -11 31
0 14 -18 -22 -24 -67 -11 -73 -8 -92 35 l-18 41 -5 -31 c-3 -17 -1 -31 4 -31
23 0 3 -18 -29 -28 -71 -21 -85 -22 -72 -6 13 16 5 44 -13 44 -10 0 -10 -2 1
-9 11 -7 10 -11 -7 -20 -11 -6 -28 -11 -36 -11 -19 0 -22 20 -3 20 6 1 2 6
-11 14 -21 11 -62 62 -62 77 0 4 11 10 25 13 23 6 24 8 11 22 -10 9 -43 17
-93 20 -73 5 -82 3 -138 -26 -33 -17 -52 -28 -42 -26 25 8 21 -11 -5 -25 -13
-7 -25 -15 -28 -18 -10 -12 -96 -49 -130 -56 -19 -3 -44 -9 -55 -13 -17 -5
-16 -7 9 -11 31 -6 49 -31 22 -31 -9 0 -20 -8 -23 -17 -4 -10 -11 -22 -17 -26
-6 -4 6 -7 26 -5 20 1 40 -1 44 -5 9 -8 -58 -7 -101 2 -33 7 -39 25 -9 28 18
3 18 2 -1 -6 -18 -9 -18 -10 6 -10 34 -1 46 25 16 33 -33 9 -69 7 -63 -3 3 -5
-1 -15 -10 -22 -22 -18 -160 2 -183 26 -15 17 -15 17 2 11 20 -6 60 31 50 47
-3 5 -11 0 -18 -10 -13 -17 -14 -17 -9 3 4 14 0 23 -10 27 -31 12 -17 26 16
16 69 -19 313 -4 341 21 5 4 -13 6 -40 4 -26 -1 -37 0 -23 3 53 11 67 59 46
158 -3 17 -3 23 0 15 4 -8 10 -17 14 -20 3 -3 17 -31 30 -62 13 -32 25 -56 27
-54 2 2 -8 32 -22 67 -63 155 -76 291 -54 578 11 143 21 184 35 145 4 -10 18
-30 31 -43 l23 -24 0 27 c0 14 -6 26 -12 27 -10 0 -10 2 0 6 7 3 12 23 12 47
0 48 40 111 75 118 19 4 20 1 15 -36 -7 -51 6 -138 26 -180 18 -34 63 -86 75
-86 5 0 -3 12 -16 26 -31 33 -32 54 -4 49 16 -3 19 0 14 15 -4 12 -2 20 5 20
6 0 8 5 4 12 -5 8 -2 9 12 3 71 -29 74 -30 95 -17 19 12 19 11 9 -8 -7 -13 -7
-20 0 -20 15 0 12 -21 -7 -44 l-18 -21 24 20 c54 47 64 109 31 199 -25 64 -60
98 -153 146 -66 34 -82 50 -52 50 20 0 20 1 -20 60 -19 29 -35 63 -35 77 0 24
1 24 74 21 41 -2 74 -5 73 -8z m837 1 c8 -12 133 -81 147 -81 6 0 -4 12 -21
26 -29 25 -36 49 -8 27 26 -20 145 -61 210 -72 37 -6 75 -14 83 -17 32 -13 13
12 -30 40 -25 15 -44 30 -42 32 2 2 31 -6 65 -19 59 -21 75 -38 51 -53 -8 -5
-7 -9 1 -14 10 -6 9 -17 -4 -52 -20 -48 -44 -80 -57 -73 -19 12 -236 46 -259
40 -19 -4 -21 -3 -10 5 11 7 5 9 -25 9 -35 -1 -37 -2 -15 -9 21 -7 19 -8 -17
-9 -32 -1 -43 3 -43 14 0 8 6 15 13 16 6 0 26 3 42 5 17 3 55 9 85 13 l55 7
-58 5 c-33 2 -97 -2 -143 -10 -83 -13 -86 -13 -105 7 -27 30 -39 66 -39 117 0
40 2 44 28 48 52 8 91 7 96 -2z m292 -69 c-5 -4 -106 46 -106 53 0 3 25 -7 55
-22 30 -15 53 -29 51 -31z m-1757 -43 c1 -46 40 -200 55 -219 27 -33 46 -70
36 -70 -15 0 -60 77 -76 131 -8 27 -17 49 -21 49 -3 0 -3 -25 -1 -55 3 -40 2
-53 -6 -45 -13 13 -21 174 -11 238 6 37 9 43 16 27 4 -11 8 -36 8 -56z m861
-43 c59 -39 54 -48 -8 -17 -40 21 -102 78 -102 95 0 5 12 -2 28 -16 15 -14 52
-42 82 -62z m-495 38 c17 -4 46 -16 65 -28 l35 -21 -45 -7 c-82 -12 -96 -10
-108 17 -17 38 -15 57 6 51 9 -3 31 -8 47 -12z m731 -83 c20 -18 34 -35 31
-37 -10 -10 -64 26 -90 60 -47 62 -30 55 59 -23z m-952 -99 c23 -15 44 -31 46
-37 5 -12 67 -35 94 -35 11 0 28 8 38 17 18 16 18 16 12 -1 -10 -27 -44 -35
-86 -20 -46 16 -49 10 -7 -11 21 -12 43 -15 72 -10 31 4 38 3 27 -4 -37 -26
-137 1 -210 57 l-35 27 23 -33 c31 -43 14 -41 -21 3 -15 19 -23 35 -17 35 7 0
-2 17 -18 38 -16 20 -33 53 -37 72 l-8 35 43 -53 c23 -30 61 -66 84 -80z
m1832 44 c-15 -36 -29 -45 -41 -26 -4 6 -10 8 -14 6 -4 -3 -13 -1 -19 3 -10 6
-9 11 4 22 16 12 17 12 9 -1 -6 -12 -5 -13 6 -2 7 6 21 12 30 12 9 0 20 10 24
23 3 12 9 17 11 10 3 -6 -2 -27 -10 -47z m-592 -27 c-35 -14 -59 -9 -89 17
l-30 26 39 -21 c40 -22 65 -19 33 3 -30 23 -18 24 25 3 35 -18 38 -22 22 -28z
m-219 31 c3 -5 2 -10 -4 -10 -5 0 -13 5 -16 10 -3 6 -2 10 4 10 5 0 13 -4 16
-10z m-508 -96 c4 -11 -1 -22 -12 -31 -16 -11 -20 -11 -28 3 -5 8 -6 22 -3 30
7 19 35 18 43 -2z m1107 -51 c4 -9 2 -21 -4 -27 -13 -13 -46 17 -36 33 11 16
33 13 40 -6z m-1087 -45 c-3 -8 -6 -5 -6 6 -1 11 2 17 5 13 3 -3 4 -12 1 -19z
m1133 -68 c0 -5 -4 -10 -10 -10 -5 0 -10 5 -10 10 0 6 5 10 10 10 6 0 10 -4
10 -10z m-1750 -217 c0 -23 29 -53 52 -53 10 0 18 -4 18 -10 0 -5 -6 -10 -14
-10 -21 0 -30 -32 -11 -42 8 -5 13 -14 9 -19 -4 -6 -10 -6 -19 1 -9 7 -16 6
-24 -4 -9 -11 -9 -14 1 -12 22 2 18 -17 -13 -66 -16 -27 -36 -48 -46 -48 -9 0
-25 -7 -35 -16 -17 -16 -17 -18 0 -30 15 -12 15 -13 -10 -14 -15 0 -30 -5 -34
-11 -4 -8 1 -9 16 -4 15 5 20 4 16 -4 -4 -6 -16 -11 -27 -11 -10 0 -19 -5 -19
-12 0 -6 -2 -9 -5 -6 -3 3 8 34 24 70 27 60 63 171 91 276 11 41 30 58 30 25z
m2339 -223 c-6 -16 -15 -30 -20 -30 -13 0 -11 7 7 35 22 33 25 31 13 -5z m-79
-79 c0 -6 -4 -13 -10 -16 -5 -3 -10 1 -10 9 0 9 5 16 10 16 6 0 10 -4 10 -9z
m-151 -85 c-2 -2 -15 -9 -29 -16 -23 -12 -24 -12 -11 3 7 10 20 17 29 17 8 0
13 -2 11 -4z m-2276 -31 c-3 -9 -8 -14 -10 -11 -3 3 -2 9 2 15 9 16 15 13 8
-4z m683 -119 c6 -17 -12 -56 -27 -56 -6 0 -6 7 1 19 16 30 12 34 -12 11 -30
-28 -37 -16 -8 15 27 28 38 31 46 11z m101 -56 c10 -15 10 -19 -3 -24 -40 -15
-50 -5 -68 68 l-7 29 33 -28 c18 -15 39 -36 45 -45z m550 43 c5 -15 -52 -45
-79 -41 -34 5 -32 26 4 42 38 17 70 16 75 -1z m-1310 -6 c4 -8 16 -17 26 -20
10 -4 17 -12 15 -18 -6 -18 -22 -12 -47 20 -13 17 -19 31 -13 31 6 0 15 -6 19
-13z m310 7 c-3 -3 -12 -4 -19 -1 -8 3 -5 6 6 6 11 1 17 -2 13 -5z m511 -26
c7 -7 12 -19 12 -27 0 -12 -6 -9 -21 9 -17 21 -20 21 -14 5 5 -15 3 -17 -6 -8
-11 11 -5 33 10 33 4 0 12 -5 19 -12z m588 -55 c-18 -17 -19 -17 -13 0 8 22 2
22 -36 -5 -41 -29 -161 -40 -151 -14 4 11 14 15 28 11 11 -2 15 -2 9 1 -7 3
-13 10 -13 15 0 15 44 10 68 -7 21 -15 48 -11 37 6 -6 9 24 24 42 21 8 -1 10
5 6 16 -5 15 -1 14 18 -4 23 -22 23 -23 5 -40z m-296 -3 c0 -5 -7 -7 -15 -4
-8 4 -15 8 -15 10 0 2 7 4 15 4 8 0 15 -4 15 -10z m1813 -434 c4 -10 1 -13 -8
-9 -8 3 -12 9 -9 14 7 12 11 11 17 -5z m-363 -72 c0 -9 5 -12 13 -8 6 4 9 4 5
-1 -4 -4 -3 -14 2 -20 8 -9 6 -14 -5 -19 -8 -3 -15 -12 -15 -21 0 -8 -4 -15
-9 -15 -14 0 -32 26 -23 35 4 5 -1 5 -10 2 -23 -8 -24 20 -1 45 20 22 43 24
43 2z m-1327 -31 c-7 -2 -21 -2 -30 0 -10 3 -4 5 12 5 17 0 24 -2 18 -5z
m1394 -79 c-3 -3 -12 -4 -19 -1 -8 3 -5 6 6 6 11 1 17 -2 13 -5z"/>
<path d="M1560 3105 c14 -8 30 -14 35 -14 6 0 -1 6 -15 14 -14 8 -29 14 -35
14 -5 0 1 -6 15 -14z"/>
<path d="M3268 2873 c7 -3 16 -2 19 1 4 3 -2 6 -13 5 -11 0 -14 -3 -6 -6z"/>
<path d="M2550 2728 c0 -7 7 -22 15 -32 11 -14 12 -22 4 -27 -8 -5 -5 -10 7
-17 19 -9 94 -24 94 -17 0 2 -16 12 -35 24 -20 11 -44 34 -53 51 -18 31 -32
39 -32 18z"/>
<path d="M2688 2633 c7 -3 16 -2 19 1 4 3 -2 6 -13 5 -11 0 -14 -3 -6 -6z"/>
<path d="M1772 2068 c-7 -7 -12 -17 -12 -22 0 -6 5 -3 11 7 13 22 76 23 101 0
10 -9 18 -12 18 -7 0 21 -26 34 -65 34 -23 0 -46 -5 -53 -12z"/>
<path d="M1348 2037 c-21 -6 -38 -14 -38 -18 0 -4 20 -1 45 8 25 8 45 17 45
19 0 5 -6 4 -52 -9z"/>
<path d="M998 1928 c-31 -11 -36 -23 -12 -32 29 -11 39 -6 19 10 -19 16 -19
16 12 12 26 -4 30 -2 22 9 -7 7 -12 13 -13 12 0 0 -13 -5 -28 -11z"/>
<path d="M1044 1885 c11 -8 24 -15 30 -15 5 0 1 7 -10 15 -10 8 -23 14 -29 14
-5 0 -1 -6 9 -14z"/>
<path d="M3420 1396 c0 -2 8 -10 18 -17 15 -13 16 -12 3 4 -13 16 -21 21 -21
13z"/>
<path d="M2950 4493 c1 -14 27 -43 38 -43 6 0 16 -8 21 -17 9 -16 10 -16 11
-2 0 9 -16 29 -35 43 -19 15 -35 23 -35 19z"/>
<path d="M3045 4360 c3 -5 8 -10 11 -10 2 0 4 5 4 10 0 6 -5 10 -11 10 -5 0
-7 -4 -4 -10z"/>
<path d="M2962 4340 c0 -14 2 -19 5 -12 2 6 2 18 0 25 -3 6 -5 1 -5 -13z"/>
<path d="M2986 4333 c-3 -7 1 -19 9 -27 8 -8 15 -19 15 -25 0 -6 5 -11 11 -11
5 0 7 -6 3 -12 -6 -10 -4 -10 7 0 21 20 34 14 14 -8 -10 -11 -22 -17 -26 -14
-5 3 -9 1 -9 -4 0 -6 6 -12 14 -15 18 -7 71 39 53 46 -7 3 -1 6 12 6 14 1 33
-6 43 -16 16 -14 18 -14 18 0 0 21 -90 52 -101 35 -13 -20 -23 0 -13 23 10 21
11 21 27 4 20 -19 33 -14 24 9 -7 18 -95 26 -101 9z"/>
<path d="M3071 4217 c-8 -11 -4 -13 20 -9 38 6 79 -15 79 -40 0 -15 5 -17 25
-12 16 4 25 2 25 -6 0 -6 -4 -8 -10 -5 -5 3 -18 1 -27 -4 -16 -9 -14 -10 9
-11 42 0 61 10 47 26 -6 8 -17 14 -25 14 -7 0 -29 14 -47 30 -37 32 -77 39
-96 17z"/>
<path d="M3218 4070 c19 -34 37 -40 27 -10 -5 17 -2 20 24 20 17 0 31 5 31 10
0 6 -22 10 -50 10 l-49 0 17 -30z"/>
<path d="M3256 4044 c-9 -23 4 -42 31 -49 28 -7 49 7 39 23 -4 6 -20 17 -36
25 -24 13 -30 13 -34 1z m44 -32 c-7 -3 -19 3 -28 13 -16 15 -15 16 12 4 15
-7 23 -15 16 -17z"/>
<path d="M3360 3950 c0 -5 5 -10 11 -10 5 0 7 5 4 10 -3 6 -8 10 -11 10 -2 0
-4 -4 -4 -10z"/>
<path d="M3336 3922 c-4 -7 -2 -28 3 -48 6 -21 8 -41 5 -46 -3 -4 2 -8 11 -8
13 0 15 7 9 38 -10 56 -20 77 -28 64z"/>
<path d="M3389 3888 c0 -2 -2 -17 -5 -35 -2 -18 -5 -37 -6 -43 -2 -6 12 -23
30 -37 24 -19 32 -22 32 -10 0 8 -9 17 -20 20 -22 6 -28 42 -7 50 10 4 10 6 0
6 -7 1 -13 6 -13 12 0 6 9 8 21 4 15 -5 19 -4 15 4 -7 11 -45 35 -47 29z"/>
<path d="M3441 3810 c0 -8 8 -31 19 -50 11 -19 19 -28 19 -20 0 8 -8 31 -19
50 -11 19 -19 28 -19 20z"/>
<path d="M3603 3463 c-17 -35 -16 -43 1 -43 8 0 18 -9 21 -20 3 -11 11 -20 16
-20 14 0 11 15 -10 42 -13 15 -18 33 -14 46 7 30 1 27 -14 -5z"/>
<path d="M3666 3417 c3 -10 9 -15 12 -12 3 3 0 11 -7 18 -10 9 -11 8 -5 -6z"/>
<path d="M3594 3344 c11 -43 31 -61 50 -44 9 7 16 15 16 19 -1 14 -27 39 -49
46 -22 7 -23 5 -17 -21z m41 -13 c3 -5 1 -12 -4 -15 -5 -3 -11 1 -15 9 -6 16
9 21 19 6z"/>
<path d="M3711 3285 c1 -19 18 -51 18 -35 0 8 -4 22 -9 30 -5 8 -9 11 -9 5z"/>
<path d="M3660 3260 c0 -5 5 -10 11 -10 5 0 7 5 4 10 -3 6 -8 10 -11 10 -2 0
-4 -4 -4 -10z"/>
<path d="M3670 3201 c10 -21 30 -37 30 -26 0 14 -21 45 -31 45 -6 0 -6 -7 1
-19z"/>
<path d="M3741 3184 c0 -11 3 -14 6 -6 3 7 2 16 -1 19 -3 4 -6 -2 -5 -13z"/>
<path d="M3667 3133 c-4 -3 -7 -24 -7 -46 0 -34 2 -38 15 -27 10 8 14 24 11
42 -5 34 -10 41 -19 31z"/>
<path d="M3719 3084 c-5 -15 -8 -29 -5 -31 2 -2 8 10 14 26 13 38 5 41 -9 5z"/>
<path d="M3722 3003 c-21 -76 -23 -98 -8 -118 15 -21 33 -15 20 7 -14 23 -15
52 -3 96 6 23 10 45 7 47 -3 3 -10 -12 -16 -32z"/>
<path d="M3751 2984 c0 -11 3 -14 6 -6 3 7 2 16 -1 19 -3 4 -6 -2 -5 -13z"/>
<path d="M3656 2981 c-4 -5 -2 -20 3 -33 9 -21 10 -21 10 10 1 32 -3 39 -13
23z"/>
<path d="M3667 2783 c-21 -64 -22 -113 -3 -113 21 0 31 20 31 57 0 39 -1 39
-16 12 -9 -17 -8 -23 2 -30 7 -4 10 -11 7 -14 -11 -11 -28 5 -28 26 0 11 7 34
16 50 8 17 14 38 12 47 -2 9 -11 -6 -21 -35z"/>
<path d="M3726 2808 c-9 -12 -16 -27 -16 -33 0 -5 5 -3 10 5 9 13 11 13 20 0
7 -11 10 -7 10 18 0 38 -4 39 -24 10z"/>
<path d="M3600 2696 c0 -8 4 -17 9 -20 5 -4 7 3 4 14 -6 23 -13 26 -13 6z"/>
<path d="M3603 2619 c-9 -9 -9 -16 0 -30 8 -13 8 -24 -1 -43 -6 -14 -8 -26 -4
-26 13 0 31 59 20 66 -5 3 -8 15 -5 25 6 22 5 23 -10 8z"/>
<path d="M3676 2526 c-14 -19 -31 -40 -38 -48 -7 -7 -24 -29 -37 -48 -14 -19
-30 -39 -38 -43 -7 -4 -13 -13 -13 -18 0 -16 -40 -69 -51 -69 -5 0 -4 10 3 23
7 12 13 34 14 49 2 27 1 27 -27 12 -16 -8 -33 -13 -37 -10 -11 7 -38 -11 -30
-20 4 -3 20 -2 37 4 23 8 31 7 35 -4 3 -8 2 -14 -2 -14 -5 0 -8 -13 -8 -30 0
-16 2 -30 5 -30 9 0 61 46 61 54 0 16 68 95 75 88 5 -4 5 -1 1 6 -4 7 0 20 12
30 19 17 76 102 68 102 -2 0 -15 -15 -30 -34z"/>
<path d="M3445 2320 c3 -5 8 -10 11 -10 2 0 4 5 4 10 0 6 -5 10 -11 10 -5 0
-7 -4 -4 -10z"/>
<path d="M3015 2059 c-56 -13 -69 -30 -19 -26 45 4 74 15 74 28 0 10 -1 10
-55 -2z"/>
<path d="M3120 2040 c-8 -5 -10 -10 -5 -10 6 0 17 5 25 10 8 5 11 10 5 10 -5
0 -17 -5 -25 -10z"/>
<path d="M3080 2020 c-9 -6 -10 -10 -3 -10 6 0 15 5 18 10 8 12 4 12 -15 0z"/>
<path d="M2675 1975 c-28 -24 -29 -25 -7 -25 12 0 22 4 22 9 0 5 14 14 30 20
36 12 39 21 8 21 -13 -1 -36 -12 -53 -25z"/>
<path d="M2975 1990 c-13 -5 -14 -9 -5 -9 8 0 24 4 35 9 13 5 14 9 5 9 -8 0
-24 -4 -35 -9z"/>
<path d="M2765 1960 c-4 -6 3 -10 14 -10 25 0 27 6 6 13 -8 4 -17 2 -20 -3z"/>
<path d="M2515 1920 c-4 -6 7 -10 24 -10 17 0 31 5 31 10 0 6 -11 10 -24 10
-14 0 -28 -4 -31 -10z"/>
<path d="M2433 1893 c9 -2 23 -2 30 0 6 3 -1 5 -18 5 -16 0 -22 -2 -12 -5z"/>
<path d="M2460 1870 c-13 -8 -12 -10 3 -10 9 0 17 5 17 10 0 12 -1 12 -20 0z"/>
<path d="M3811 1604 c0 -11 3 -14 6 -6 3 7 2 16 -1 19 -3 4 -6 -2 -5 -13z"/>
<path d="M3776 1594 c-17 -12 -17 -14 -4 -14 9 0 20 5 23 11 11 17 2 18 -19 3z"/>
<path d="M3715 1570 c-13 -6 -15 -9 -5 -9 8 0 22 4 30 9 18 12 2 12 -25 0z"/>
<path d="M3836 1447 c3 -10 9 -15 12 -12 3 3 0 11 -7 18 -10 9 -11 8 -5 -6z"/>
<path d="M2078 1413 c7 -3 16 -2 19 1 4 3 -2 6 -13 5 -11 0 -14 -3 -6 -6z"/>
<path d="M3749 1356 c27 -29 33 -32 25 -13 -2 7 -14 19 -27 26 -21 13 -21 12
2 -13z"/>
<path d="M1993 1218 c-36 -61 -35 -74 2 -34 27 30 38 37 47 28 16 -16 28 -15
28 3 0 9 -12 20 -26 25 -33 13 -29 15 -51 -22z"/>
<path d="M1621 1174 c0 -11 3 -14 6 -6 3 7 2 16 -1 19 -3 4 -6 -2 -5 -13z"/>
<path d="M2131 1043 c0 -12 4 -25 9 -28 6 -4 8 -10 5 -15 -3 -4 4 -25 14 -47
10 -21 34 -73 52 -116 18 -44 39 -81 46 -84 7 -3 13 -14 13 -24 0 -10 5 -19
11 -19 6 0 9 3 7 8 -2 4 -10 24 -18 45 -8 20 -18 37 -22 37 -4 0 -8 9 -8 21 0
12 -14 50 -30 85 -17 35 -30 66 -28 68 2 2 -7 15 -19 28 -11 13 -23 32 -26 43
-4 19 -5 18 -6 -2z"/>
<path d="M1920 1031 c-12 -24 -13 -31 -1 -31 5 0 11 11 13 25 6 30 2 32 -12 6z"/>
<path d="M3775 1040 c4 -6 11 -8 16 -5 14 9 11 15 -7 15 -8 0 -12 -5 -9 -10z"/>
<path d="M3992 1041 c-25 -7 -27 -28 -2 -23 17 4 36 20 29 25 -2 2 -14 1 -27
-2z"/>
<path d="M2160 851 c0 -5 5 -13 10 -16 6 -3 10 -2 10 4 0 5 -4 13 -10 16 -5 3
-10 2 -10 -4z"/>
<path d="M2330 527 c0 -2 18 -60 41 -128 23 -68 56 -182 74 -254 18 -73 37
-130 44 -129 6 1 17 2 25 2 17 2 10 41 -9 57 -6 6 -12 13 -13 18 -4 38 -15 68
-22 57 -6 -9 -11 0 -15 26 -3 21 -10 49 -15 61 -5 13 -7 31 -4 40 5 15 4 16
-5 3 -9 -13 -11 -13 -11 0 1 24 -74 250 -82 250 -5 0 -8 -2 -8 -3z m167 -489
c-3 -7 -5 -2 -5 12 0 14 2 19 5 13 2 -7 2 -19 0 -25z"/>
</g>
</svg>
